<mxfile host="app.diagrams.net" agent="Mozilla/5.0 (Windows NT 10.0; Win64; x64; rv:140.0) Gecko/20100101 Firefox/140.0" version="27.1.6">
  <diagram name="PÃ¡gina-1" id="-eWMreQbDxA8mFS1UDP3">
    <mxGraphModel dx="2719" dy="1457" grid="1" gridSize="10" guides="1" tooltips="1" connect="1" arrows="1" fold="1" page="1" pageScale="1" pageWidth="827" pageHeight="1169" math="0" shadow="0">
      <root>
        <mxCell id="0" />
        <mxCell id="1" parent="0" />
        <mxCell id="vmmLuZkF5NiIaxrYORKJ-55" value="Position" style="swimlane;fontStyle=1;align=center;verticalAlign=top;childLayout=stackLayout;horizontal=1;startSize=26;horizontalStack=0;resizeParent=1;resizeParentMax=0;resizeLast=0;collapsible=1;marginBottom=0;whiteSpace=wrap;html=1;" parent="1" vertex="1">
          <mxGeometry x="-520" y="-680" width="540" height="280" as="geometry" />
        </mxCell>
        <mxCell id="vmmLuZkF5NiIaxrYORKJ-56" value="+ latitude: double&lt;div&gt;+ longitude: double&lt;/div&gt;&lt;div&gt;+ system:App&lt;/div&gt;" style="text;strokeColor=none;fillColor=none;align=left;verticalAlign=top;spacingLeft=4;spacingRight=4;overflow=hidden;rotatable=0;points=[[0,0.5],[1,0.5]];portConstraint=eastwest;whiteSpace=wrap;html=1;" parent="vmmLuZkF5NiIaxrYORKJ-55" vertex="1">
          <mxGeometry y="26" width="540" height="54" as="geometry" />
        </mxCell>
        <mxCell id="vmmLuZkF5NiIaxrYORKJ-57" value="" style="line;strokeWidth=1;fillColor=none;align=left;verticalAlign=middle;spacingTop=-1;spacingLeft=3;spacingRight=3;rotatable=0;labelPosition=right;points=[];portConstraint=eastwest;strokeColor=inherit;" parent="vmmLuZkF5NiIaxrYORKJ-55" vertex="1">
          <mxGeometry y="80" width="540" height="8" as="geometry" />
        </mxCell>
        <mxCell id="vmmLuZkF5NiIaxrYORKJ-58" value="&lt;div&gt;&lt;u&gt;+ new(double, double, App):void&lt;/u&gt;&lt;/div&gt;&lt;div&gt;&lt;br&gt;&lt;/div&gt;&lt;div&gt;+ getDistanceTo(position:Position, mu:MesureUnit): double&lt;/div&gt;&lt;div&gt;+ positionsInRangeToMe(positions:Position[0..*], :radius:double, mU:MeasureUnit):Position[0..*]&lt;/div&gt;&lt;div&gt;+ getSamplesInRangeToMe(samples:Sample[0..*], radius:double, mu:MesureUnit):Samples[0..*]&lt;/div&gt;&lt;div&gt;&lt;br&gt;&lt;/div&gt;&lt;div&gt;//Getters&lt;/div&gt;&lt;div&gt;+ getRegions(system:App):Region[0..*]&lt;/div&gt;&lt;div&gt;+ getLatitude():double&lt;/div&gt;&lt;div&gt;+ getLongitude():double&lt;/div&gt;&lt;div&gt;+ getApp():App&lt;/div&gt;&lt;div&gt;&lt;br&gt;&lt;/div&gt;" style="text;strokeColor=none;fillColor=none;align=left;verticalAlign=top;spacingLeft=4;spacingRight=4;overflow=hidden;rotatable=0;points=[[0,0.5],[1,0.5]];portConstraint=eastwest;whiteSpace=wrap;html=1;" parent="vmmLuZkF5NiIaxrYORKJ-55" vertex="1">
          <mxGeometry y="88" width="540" height="192" as="geometry" />
        </mxCell>
        <mxCell id="vmmLuZkF5NiIaxrYORKJ-70" value="" style="group" parent="1" vertex="1" connectable="0">
          <mxGeometry x="130" y="-500" width="1280" height="780" as="geometry" />
        </mxCell>
        <mxCell id="vmmLuZkF5NiIaxrYORKJ-1" value="&lt;div&gt;&amp;lt;&amp;lt;asbtract&amp;gt;&amp;gt;&lt;/div&gt;&lt;div&gt;User&lt;/div&gt;" style="swimlane;fontStyle=1;align=center;verticalAlign=top;childLayout=stackLayout;horizontal=1;startSize=40;horizontalStack=0;resizeParent=1;resizeParentMax=0;resizeLast=0;collapsible=1;marginBottom=0;whiteSpace=wrap;html=1;" parent="vmmLuZkF5NiIaxrYORKJ-70" vertex="1">
          <mxGeometry x="130" width="350" height="370" as="geometry" />
        </mxCell>
        <mxCell id="vmmLuZkF5NiIaxrYORKJ-2" value="&lt;div&gt;# name: String&lt;/div&gt;&lt;div&gt;# state: IUserState&lt;/div&gt;&lt;div&gt;# system: App&lt;/div&gt;" style="text;strokeColor=none;fillColor=none;align=left;verticalAlign=top;spacingLeft=4;spacingRight=4;overflow=hidden;rotatable=0;points=[[0,0.5],[1,0.5]];portConstraint=eastwest;whiteSpace=wrap;html=1;" parent="vmmLuZkF5NiIaxrYORKJ-1" vertex="1">
          <mxGeometry y="40" width="350" height="60" as="geometry" />
        </mxCell>
        <mxCell id="vmmLuZkF5NiIaxrYORKJ-3" value="" style="line;strokeWidth=1;fillColor=none;align=left;verticalAlign=middle;spacingTop=-1;spacingLeft=3;spacingRight=3;rotatable=0;labelPosition=right;points=[];portConstraint=eastwest;strokeColor=inherit;" parent="vmmLuZkF5NiIaxrYORKJ-1" vertex="1">
          <mxGeometry y="100" width="350" height="8" as="geometry" />
        </mxCell>
        <mxCell id="vmmLuZkF5NiIaxrYORKJ-4" value="&lt;div&gt;&lt;u&gt;+ new(String, App):void&lt;/u&gt;&lt;/div&gt;&lt;div&gt;&lt;u&gt;&lt;br&gt;&lt;/u&gt;&lt;/div&gt;&lt;div&gt;+ uploadSample(specie:Evinchuca, location:Position):void&lt;/div&gt;&lt;div&gt;+ addReview(sample:Sample, opinion:OpinionValue):void&lt;/div&gt;&lt;div&gt;&lt;br&gt;&lt;/div&gt;&lt;div&gt;//Getters&lt;/div&gt;&lt;div&gt;+ getApp():App&lt;/div&gt;&lt;div&gt;+ getName():String&lt;/div&gt;&lt;div&gt;&lt;br&gt;&lt;/div&gt;&lt;div&gt;&lt;i&gt;+ getExpertice():String &amp;lt;&amp;lt;abstract&amp;gt;&amp;gt;&lt;/i&gt;&lt;/div&gt;" style="text;strokeColor=none;fillColor=none;align=left;verticalAlign=top;spacingLeft=4;spacingRight=4;overflow=hidden;rotatable=0;points=[[0,0.5],[1,0.5]];portConstraint=eastwest;whiteSpace=wrap;html=1;" parent="vmmLuZkF5NiIaxrYORKJ-1" vertex="1">
          <mxGeometry y="108" width="350" height="262" as="geometry" />
        </mxCell>
        <mxCell id="vmmLuZkF5NiIaxrYORKJ-5" value="PermanentExpert" style="swimlane;fontStyle=1;align=center;verticalAlign=top;childLayout=stackLayout;horizontal=1;startSize=26;horizontalStack=0;resizeParent=1;resizeParentMax=0;resizeLast=0;collapsible=1;marginBottom=0;whiteSpace=wrap;html=1;" parent="vmmLuZkF5NiIaxrYORKJ-70" vertex="1">
          <mxGeometry x="390" y="520" width="210" height="94" as="geometry" />
        </mxCell>
        <mxCell id="vmmLuZkF5NiIaxrYORKJ-7" value="" style="line;strokeWidth=1;fillColor=none;align=left;verticalAlign=middle;spacingTop=-1;spacingLeft=3;spacingRight=3;rotatable=0;labelPosition=right;points=[];portConstraint=eastwest;strokeColor=inherit;" parent="vmmLuZkF5NiIaxrYORKJ-5" vertex="1">
          <mxGeometry y="26" width="210" height="8" as="geometry" />
        </mxCell>
        <mxCell id="vmmLuZkF5NiIaxrYORKJ-8" value="&lt;div&gt;&lt;u&gt;+ new(String, App):void&lt;br&gt;&lt;/u&gt;&lt;/div&gt;&lt;div&gt;&lt;br&gt;&lt;/div&gt;&lt;div&gt;+ getExpertise():String&lt;/div&gt;" style="text;strokeColor=none;fillColor=none;align=left;verticalAlign=top;spacingLeft=4;spacingRight=4;overflow=hidden;rotatable=0;points=[[0,0.5],[1,0.5]];portConstraint=eastwest;whiteSpace=wrap;html=1;" parent="vmmLuZkF5NiIaxrYORKJ-5" vertex="1">
          <mxGeometry y="34" width="210" height="60" as="geometry" />
        </mxCell>
        <mxCell id="vmmLuZkF5NiIaxrYORKJ-10" value="Extends" style="endArrow=block;endSize=16;endFill=0;html=1;rounded=0;entryX=0.814;entryY=1;entryDx=0;entryDy=0;entryPerimeter=0;exitX=0.348;exitY=-0.025;exitDx=0;exitDy=0;exitPerimeter=0;" parent="vmmLuZkF5NiIaxrYORKJ-70" source="vmmLuZkF5NiIaxrYORKJ-5" target="vmmLuZkF5NiIaxrYORKJ-4" edge="1">
          <mxGeometry width="160" relative="1" as="geometry">
            <mxPoint x="250" y="370" as="sourcePoint" />
            <mxPoint x="410" y="370" as="targetPoint" />
          </mxGeometry>
        </mxCell>
        <mxCell id="vmmLuZkF5NiIaxrYORKJ-16" value="&lt;div&gt;&amp;lt;&amp;lt;interface&amp;gt;&amp;gt;&lt;/div&gt;&lt;div&gt;IUserState&lt;/div&gt;" style="swimlane;fontStyle=0;childLayout=stackLayout;horizontal=1;startSize=26;fillColor=none;horizontalStack=0;resizeParent=1;resizeParentMax=0;resizeLast=0;collapsible=1;marginBottom=0;whiteSpace=wrap;html=1;" parent="vmmLuZkF5NiIaxrYORKJ-70" vertex="1">
          <mxGeometry x="780" y="230" width="490" height="70" as="geometry" />
        </mxCell>
        <mxCell id="vmmLuZkF5NiIaxrYORKJ-17" value="&lt;div&gt;&lt;i&gt;+ getExpertise():String&lt;/i&gt;&lt;/div&gt;&lt;div&gt;&lt;i&gt;+ statCheck(user:ChangeableUser, samples:LocalDate[0..*], reviews:LocalDate[0..*]):void&lt;/i&gt;&lt;/div&gt;" style="text;strokeColor=none;fillColor=none;align=left;verticalAlign=top;spacingLeft=4;spacingRight=4;overflow=hidden;rotatable=0;points=[[0,0.5],[1,0.5]];portConstraint=eastwest;whiteSpace=wrap;html=1;" parent="vmmLuZkF5NiIaxrYORKJ-16" vertex="1">
          <mxGeometry y="26" width="490" height="44" as="geometry" />
        </mxCell>
        <mxCell id="vmmLuZkF5NiIaxrYORKJ-22" value="" style="html=1;verticalAlign=bottom;endArrow=block;curved=0;rounded=0;" parent="vmmLuZkF5NiIaxrYORKJ-70" source="vmmLuZkF5NiIaxrYORKJ-4" target="vmmLuZkF5NiIaxrYORKJ-16" edge="1">
          <mxGeometry width="80" relative="1" as="geometry">
            <mxPoint x="1210" y="760" as="sourcePoint" />
            <mxPoint x="1290" y="760" as="targetPoint" />
          </mxGeometry>
        </mxCell>
        <mxCell id="vmmLuZkF5NiIaxrYORKJ-54" value="state" style="edgeLabel;html=1;align=center;verticalAlign=middle;resizable=0;points=[];" parent="vmmLuZkF5NiIaxrYORKJ-22" vertex="1" connectable="0">
          <mxGeometry x="-0.1018" y="1" relative="1" as="geometry">
            <mxPoint as="offset" />
          </mxGeometry>
        </mxCell>
        <mxCell id="vmmLuZkF5NiIaxrYORKJ-23" value="Basic" style="swimlane;fontStyle=1;align=center;verticalAlign=top;childLayout=stackLayout;horizontal=1;startSize=26;horizontalStack=0;resizeParent=1;resizeParentMax=0;resizeLast=0;collapsible=1;marginBottom=0;whiteSpace=wrap;html=1;" parent="vmmLuZkF5NiIaxrYORKJ-70" vertex="1">
          <mxGeometry x="540" y="350" width="500" height="90" as="geometry" />
        </mxCell>
        <mxCell id="vmmLuZkF5NiIaxrYORKJ-25" value="" style="line;strokeWidth=1;fillColor=none;align=left;verticalAlign=middle;spacingTop=-1;spacingLeft=3;spacingRight=3;rotatable=0;labelPosition=right;points=[];portConstraint=eastwest;strokeColor=inherit;" parent="vmmLuZkF5NiIaxrYORKJ-23" vertex="1">
          <mxGeometry y="26" width="500" height="8" as="geometry" />
        </mxCell>
        <mxCell id="vmmLuZkF5NiIaxrYORKJ-26" value="&lt;div&gt;&lt;i&gt;+ getExpertise():String&lt;/i&gt;&lt;/div&gt;&lt;div&gt;&lt;i&gt;+ statCheck(user:ChangeableUser, samples:LocalDate[0..*], reviews:LocalDate[0..*]):void&lt;/i&gt;&lt;/div&gt;" style="text;strokeColor=none;fillColor=none;align=left;verticalAlign=top;spacingLeft=4;spacingRight=4;overflow=hidden;rotatable=0;points=[[0,0.5],[1,0.5]];portConstraint=eastwest;whiteSpace=wrap;html=1;" parent="vmmLuZkF5NiIaxrYORKJ-23" vertex="1">
          <mxGeometry y="34" width="500" height="56" as="geometry" />
        </mxCell>
        <mxCell id="vmmLuZkF5NiIaxrYORKJ-27" value="Expert" style="swimlane;fontStyle=1;align=center;verticalAlign=top;childLayout=stackLayout;horizontal=1;startSize=26;horizontalStack=0;resizeParent=1;resizeParentMax=0;resizeLast=0;collapsible=1;marginBottom=0;whiteSpace=wrap;html=1;" parent="vmmLuZkF5NiIaxrYORKJ-70" vertex="1">
          <mxGeometry x="780" y="480" width="500" height="90" as="geometry" />
        </mxCell>
        <mxCell id="vmmLuZkF5NiIaxrYORKJ-28" value="" style="line;strokeWidth=1;fillColor=none;align=left;verticalAlign=middle;spacingTop=-1;spacingLeft=3;spacingRight=3;rotatable=0;labelPosition=right;points=[];portConstraint=eastwest;strokeColor=inherit;" parent="vmmLuZkF5NiIaxrYORKJ-27" vertex="1">
          <mxGeometry y="26" width="500" height="8" as="geometry" />
        </mxCell>
        <mxCell id="vmmLuZkF5NiIaxrYORKJ-29" value="&lt;div&gt;&lt;i&gt;+ getExpertise():String&lt;/i&gt;&lt;/div&gt;&lt;div&gt;&lt;i&gt;+ statCheck(user:ChangeableUser, samples:LocalDate[0..*], reviews:LocalDate[0..*]):void&lt;/i&gt;&lt;/div&gt;" style="text;strokeColor=none;fillColor=none;align=left;verticalAlign=top;spacingLeft=4;spacingRight=4;overflow=hidden;rotatable=0;points=[[0,0.5],[1,0.5]];portConstraint=eastwest;whiteSpace=wrap;html=1;" parent="vmmLuZkF5NiIaxrYORKJ-27" vertex="1">
          <mxGeometry y="34" width="500" height="56" as="geometry" />
        </mxCell>
        <mxCell id="vmmLuZkF5NiIaxrYORKJ-31" value="" style="endArrow=block;dashed=1;endFill=0;endSize=12;html=1;rounded=0;entryX=0.665;entryY=1.083;entryDx=0;entryDy=0;entryPerimeter=0;exitX=0.8;exitY=0;exitDx=0;exitDy=0;exitPerimeter=0;" parent="vmmLuZkF5NiIaxrYORKJ-70" source="vmmLuZkF5NiIaxrYORKJ-27" target="vmmLuZkF5NiIaxrYORKJ-17" edge="1">
          <mxGeometry width="160" relative="1" as="geometry">
            <mxPoint x="1230" y="440" as="sourcePoint" />
            <mxPoint x="1390" y="440" as="targetPoint" />
          </mxGeometry>
        </mxCell>
        <mxCell id="vmmLuZkF5NiIaxrYORKJ-32" value="" style="endArrow=block;dashed=1;endFill=0;endSize=12;html=1;rounded=0;entryX=0.469;entryY=0.987;entryDx=0;entryDy=0;entryPerimeter=0;exitX=0.641;exitY=0;exitDx=0;exitDy=0;exitPerimeter=0;" parent="vmmLuZkF5NiIaxrYORKJ-70" source="vmmLuZkF5NiIaxrYORKJ-23" target="vmmLuZkF5NiIaxrYORKJ-17" edge="1">
          <mxGeometry width="160" relative="1" as="geometry">
            <mxPoint x="860.7438525366574" y="360" as="sourcePoint" />
            <mxPoint x="1010" y="324" as="targetPoint" />
          </mxGeometry>
        </mxCell>
        <mxCell id="vmmLuZkF5NiIaxrYORKJ-71" value="" style="group" parent="1" vertex="1" connectable="0">
          <mxGeometry x="-590" y="-170" width="1040" height="980" as="geometry" />
        </mxCell>
        <mxCell id="vmmLuZkF5NiIaxrYORKJ-37" value="Sample" style="swimlane;fontStyle=1;align=center;verticalAlign=top;childLayout=stackLayout;horizontal=1;startSize=26;horizontalStack=0;resizeParent=1;resizeParentMax=0;resizeLast=0;collapsible=1;marginBottom=0;whiteSpace=wrap;html=1;" parent="vmmLuZkF5NiIaxrYORKJ-71" vertex="1">
          <mxGeometry width="520" height="510" as="geometry" />
        </mxCell>
        <mxCell id="vmmLuZkF5NiIaxrYORKJ-38" value="+ photo: String&lt;div&gt;+ specie: EVinchuca&lt;br&gt;+ user: String&lt;/div&gt;&lt;div&gt;+ reviews: Review[0..*]&lt;/div&gt;&lt;div&gt;+ location: Position&lt;/div&gt;&lt;div&gt;+ state: ISampleState&lt;/div&gt;&lt;div&gt;+ system:App&lt;/div&gt;" style="text;strokeColor=none;fillColor=none;align=left;verticalAlign=top;spacingLeft=4;spacingRight=4;overflow=hidden;rotatable=0;points=[[0,0.5],[1,0.5]];portConstraint=eastwest;whiteSpace=wrap;html=1;" parent="vmmLuZkF5NiIaxrYORKJ-37" vertex="1">
          <mxGeometry y="26" width="520" height="124" as="geometry" />
        </mxCell>
        <mxCell id="vmmLuZkF5NiIaxrYORKJ-39" value="" style="line;strokeWidth=1;fillColor=none;align=left;verticalAlign=middle;spacingTop=-1;spacingLeft=3;spacingRight=3;rotatable=0;labelPosition=right;points=[];portConstraint=eastwest;strokeColor=inherit;" parent="vmmLuZkF5NiIaxrYORKJ-37" vertex="1">
          <mxGeometry y="150" width="520" height="8" as="geometry" />
        </mxCell>
        <mxCell id="vmmLuZkF5NiIaxrYORKJ-40" value="&lt;div&gt;&lt;div&gt;&lt;u&gt;+new(String, EVinchuca,String, Position):void&lt;/u&gt;&lt;/div&gt;&lt;div&gt;&lt;br&gt;&lt;/div&gt;&lt;div&gt;+addReview(opinion: OpinionValue, expertise: String, userName: String): Void&lt;br&gt;&lt;div&gt;+currentResult(): OpinionValue&lt;/div&gt;&lt;div&gt;&lt;br&gt;&lt;/div&gt;&lt;/div&gt;&lt;div&gt;+ puedeOpininar(userName:String, expertise:String):boolean&lt;/div&gt;&lt;div&gt;+ listLevel():Review[0..*]&lt;/div&gt;&lt;div&gt;+ expertsCoinciden(opinion:OpinionValue):boolean&lt;/div&gt;&lt;div&gt;&lt;br&gt;&lt;/div&gt;&lt;div&gt;+ getSampleInRangeToMe(samples:Sample[0..*], radius:double: mu:MesureUnit):Sample[0..*]&lt;/div&gt;&lt;/div&gt;&lt;div&gt;&lt;br&gt;&lt;/div&gt;&lt;div&gt;//Getters&lt;/div&gt;&lt;div&gt;+ getSpecie(): EVinchuca&lt;/div&gt;&lt;div&gt;+ getLocation(): Position&lt;/div&gt;&lt;div&gt;+ getPhoto(): String&lt;/div&gt;&lt;div&gt;+ getUser(): String&lt;/div&gt;&lt;div&gt;+ getReviews():Review[0..*]&lt;/div&gt;&lt;div&gt;+ getApp():App&lt;/div&gt;&lt;div&gt;+ getState():ISampleState&lt;/div&gt;&lt;div&gt;&lt;br&gt;&lt;/div&gt;&lt;div&gt;//Setters&lt;/div&gt;&lt;div&gt;+ setState(state:ISampleState):void&lt;/div&gt;&lt;div&gt;+ setApp(system:App):void&lt;/div&gt;&lt;div&gt;&lt;br&gt;&lt;/div&gt;&lt;div&gt;&lt;br&gt;&lt;/div&gt;" style="text;strokeColor=none;fillColor=none;align=left;verticalAlign=top;spacingLeft=4;spacingRight=4;overflow=hidden;rotatable=0;points=[[0,0.5],[1,0.5]];portConstraint=eastwest;whiteSpace=wrap;html=1;" parent="vmmLuZkF5NiIaxrYORKJ-37" vertex="1">
          <mxGeometry y="158" width="520" height="352" as="geometry" />
        </mxCell>
        <mxCell id="vmmLuZkF5NiIaxrYORKJ-45" value="&lt;p style=&quot;margin:0px;margin-top:4px;text-align:center;&quot;&gt;&lt;i&gt;&amp;lt;&amp;lt;Interface&amp;gt;&amp;gt;&lt;/i&gt;&lt;br&gt;&lt;b&gt;ISampleState&lt;/b&gt;&lt;/p&gt;&lt;hr size=&quot;1&quot; style=&quot;border-style:solid;&quot;&gt;&lt;p style=&quot;margin:0px;margin-left:4px;&quot;&gt;+changeState():Void&lt;/p&gt;&lt;p style=&quot;margin:0px;margin-left:4px;&quot;&gt;+isVaild(): Boolean&lt;/p&gt;&lt;p style=&quot;margin:0px;margin-left:4px;&quot;&gt;+ addReview(expertise:String, sample:Sample, opinion:OpinionValue):void&lt;/p&gt;" style="verticalAlign=top;align=left;overflow=fill;html=1;whiteSpace=wrap;fillStyle=auto;fillColor=none;strokeColor=default;" parent="vmmLuZkF5NiIaxrYORKJ-71" vertex="1">
          <mxGeometry x="380" y="650" width="280" height="120" as="geometry" />
        </mxCell>
        <mxCell id="vmmLuZkF5NiIaxrYORKJ-46" value="&lt;p style=&quot;margin:0px;margin-top:4px;text-align:center;&quot;&gt;&lt;i&gt;Open&lt;/i&gt;&lt;/p&gt;&lt;hr size=&quot;1&quot; style=&quot;border-style:solid;&quot;&gt;&lt;p style=&quot;margin:0px;margin-left:4px;&quot;&gt;+changeState():Void&lt;/p&gt;&lt;p style=&quot;margin:0px;margin-left:4px;&quot;&gt;+isVaild(): Boolean&lt;/p&gt;&lt;p style=&quot;margin:0px;margin-left:4px;&quot;&gt;+ addReview(expertise:String, sample:Sample, opinion:OpinionValue):void&lt;/p&gt;" style="verticalAlign=top;align=left;overflow=fill;html=1;whiteSpace=wrap;fillStyle=auto;fillColor=none;strokeColor=default;" parent="vmmLuZkF5NiIaxrYORKJ-71" vertex="1">
          <mxGeometry x="70" y="870" width="270" height="110" as="geometry" />
        </mxCell>
        <mxCell id="vmmLuZkF5NiIaxrYORKJ-47" value="&lt;p style=&quot;margin:0px;margin-top:4px;text-align:center;&quot;&gt;&lt;i&gt;ExpertOnly&lt;/i&gt;&lt;/p&gt;&lt;hr size=&quot;1&quot; style=&quot;border-style:solid;&quot;&gt;&lt;p style=&quot;margin:0px;margin-left:4px;&quot;&gt;+changeState():Void&lt;/p&gt;&lt;p style=&quot;margin:0px;margin-left:4px;&quot;&gt;+isVaild(): Boolean&lt;/p&gt;&lt;p style=&quot;margin:0px;margin-left:4px;&quot;&gt;+ addReview(expertise:String, sample:Sample, opinion:OpinionValue):void&lt;/p&gt;" style="verticalAlign=top;align=left;overflow=fill;html=1;whiteSpace=wrap;fillStyle=auto;fillColor=none;strokeColor=default;" parent="vmmLuZkF5NiIaxrYORKJ-71" vertex="1">
          <mxGeometry x="370" y="870" width="270" height="110" as="geometry" />
        </mxCell>
        <mxCell id="vmmLuZkF5NiIaxrYORKJ-48" value="&lt;p style=&quot;margin:0px;margin-top:4px;text-align:center;&quot;&gt;&lt;i&gt;Closed&lt;/i&gt;&lt;/p&gt;&lt;hr size=&quot;1&quot; style=&quot;border-style:solid;&quot;&gt;&lt;p style=&quot;margin:0px;margin-left:4px;&quot;&gt;+changeState():Void&lt;/p&gt;&lt;p style=&quot;margin:0px;margin-left:4px;&quot;&gt;+isVaild(): Boolean&lt;/p&gt;&lt;p style=&quot;margin:0px;margin-left:4px;&quot;&gt;+ addReview(expertise:String, sample:Sample, opinion:OpinionValue):void&lt;/p&gt;" style="verticalAlign=top;align=left;overflow=fill;html=1;whiteSpace=wrap;fillStyle=auto;fillColor=none;strokeColor=default;" parent="vmmLuZkF5NiIaxrYORKJ-71" vertex="1">
          <mxGeometry x="720" y="840" width="270" height="110" as="geometry" />
        </mxCell>
        <mxCell id="vmmLuZkF5NiIaxrYORKJ-50" style="rounded=0;orthogonalLoop=1;jettySize=auto;html=1;exitX=0.75;exitY=0;exitDx=0;exitDy=0;strokeColor=default;dashed=1;endArrow=block;endFill=0;endSize=12;" parent="vmmLuZkF5NiIaxrYORKJ-71" source="vmmLuZkF5NiIaxrYORKJ-46" target="vmmLuZkF5NiIaxrYORKJ-45" edge="1">
          <mxGeometry relative="1" as="geometry">
            <mxPoint x="404" y="772" as="targetPoint" />
          </mxGeometry>
        </mxCell>
        <mxCell id="vmmLuZkF5NiIaxrYORKJ-51" style="rounded=0;orthogonalLoop=1;jettySize=auto;html=1;exitX=0.75;exitY=0;exitDx=0;exitDy=0;entryX=0.53;entryY=0.986;entryDx=0;entryDy=0;entryPerimeter=0;endSize=12;dashed=1;endArrow=block;endFill=0;" parent="vmmLuZkF5NiIaxrYORKJ-71" source="vmmLuZkF5NiIaxrYORKJ-47" target="vmmLuZkF5NiIaxrYORKJ-45" edge="1">
          <mxGeometry relative="1" as="geometry" />
        </mxCell>
        <mxCell id="vmmLuZkF5NiIaxrYORKJ-52" style="rounded=0;orthogonalLoop=1;jettySize=auto;html=1;exitX=0.25;exitY=0;exitDx=0;exitDy=0;entryX=0.91;entryY=1.013;entryDx=0;entryDy=0;entryPerimeter=0;dashed=1;endArrow=block;endFill=0;endSize=12;" parent="vmmLuZkF5NiIaxrYORKJ-71" source="vmmLuZkF5NiIaxrYORKJ-48" target="vmmLuZkF5NiIaxrYORKJ-45" edge="1">
          <mxGeometry relative="1" as="geometry" />
        </mxCell>
        <mxCell id="vmmLuZkF5NiIaxrYORKJ-53" value="state" style="html=1;verticalAlign=bottom;endArrow=block;curved=0;rounded=0;exitX=0.794;exitY=1.004;exitDx=0;exitDy=0;exitPerimeter=0;entryX=0.448;entryY=-0.025;entryDx=0;entryDy=0;entryPerimeter=0;" parent="vmmLuZkF5NiIaxrYORKJ-71" source="vmmLuZkF5NiIaxrYORKJ-40" target="vmmLuZkF5NiIaxrYORKJ-45" edge="1">
          <mxGeometry width="80" relative="1" as="geometry">
            <mxPoint x="470" y="620" as="sourcePoint" />
            <mxPoint x="550" y="620" as="targetPoint" />
          </mxGeometry>
        </mxCell>
        <mxCell id="vmmLuZkF5NiIaxrYORKJ-11" value="ChangeableUser" style="swimlane;fontStyle=1;align=center;verticalAlign=top;childLayout=stackLayout;horizontal=1;startSize=26;horizontalStack=0;resizeParent=1;resizeParentMax=0;resizeLast=0;collapsible=1;marginBottom=0;whiteSpace=wrap;html=1;" parent="vmmLuZkF5NiIaxrYORKJ-71" vertex="1">
          <mxGeometry x="670" y="85" width="370" height="340" as="geometry" />
        </mxCell>
        <mxCell id="vmmLuZkF5NiIaxrYORKJ-12" value="&lt;div&gt;- uploadSamplesDate:LocalDate[0..*]&lt;/div&gt;&lt;div&gt;-uploadReviewDate:LocalDate[0..*]&lt;/div&gt;" style="text;strokeColor=none;fillColor=none;align=left;verticalAlign=top;spacingLeft=4;spacingRight=4;overflow=hidden;rotatable=0;points=[[0,0.5],[1,0.5]];portConstraint=eastwest;whiteSpace=wrap;html=1;" parent="vmmLuZkF5NiIaxrYORKJ-11" vertex="1">
          <mxGeometry y="26" width="370" height="54" as="geometry" />
        </mxCell>
        <mxCell id="vmmLuZkF5NiIaxrYORKJ-13" value="" style="line;strokeWidth=1;fillColor=none;align=left;verticalAlign=middle;spacingTop=-1;spacingLeft=3;spacingRight=3;rotatable=0;labelPosition=right;points=[];portConstraint=eastwest;strokeColor=inherit;" parent="vmmLuZkF5NiIaxrYORKJ-11" vertex="1">
          <mxGeometry y="80" width="370" height="8" as="geometry" />
        </mxCell>
        <mxCell id="vmmLuZkF5NiIaxrYORKJ-14" value="&lt;div&gt;&lt;u&gt;+ new(String, App):void&lt;br&gt;&lt;/u&gt;&lt;/div&gt;&lt;div&gt;&lt;br&gt;&lt;/div&gt;&lt;div&gt;+ uploadSample(specie:Evinchuca, location:Position):void&lt;/div&gt;&lt;div&gt;+ addReiew(sample:Sample, opinion:OpinionValue):void&lt;/div&gt;&lt;div&gt;&lt;br&gt;&lt;/div&gt;&lt;div&gt;+ stateCheck():void&lt;/div&gt;&lt;div&gt;&lt;br&gt;&lt;/div&gt;&lt;div&gt;+ setState(state:IUserState):void&lt;/div&gt;&lt;div&gt;+ getState():IUserState&lt;/div&gt;&lt;div&gt;+ getUploadREviewDates():LocalDate[0..*]&lt;/div&gt;&lt;div&gt;+ getUploadSampleDates():LocalDate[0..*]&lt;/div&gt;&lt;div&gt;&lt;br&gt;&lt;/div&gt;&lt;div&gt;# uploadReviewDates():void&lt;/div&gt;&lt;div&gt;# cantidadFechasEntreDias(dates:LocalDate[0..*], days:int):double&lt;/div&gt;&lt;div&gt;# estaFechaEntreDias(date:LocalDate, days:int):boolean&lt;/div&gt;&lt;div&gt;&lt;br&gt;&lt;/div&gt;&lt;div&gt;+ setCantidadReviewDated(cant:int, date:LocalDate):void&lt;/div&gt;&lt;div&gt;&lt;br&gt;&lt;/div&gt;" style="text;strokeColor=none;fillColor=none;align=left;verticalAlign=top;spacingLeft=4;spacingRight=4;overflow=hidden;rotatable=0;points=[[0,0.5],[1,0.5]];portConstraint=eastwest;whiteSpace=wrap;html=1;" parent="vmmLuZkF5NiIaxrYORKJ-11" vertex="1">
          <mxGeometry y="88" width="370" height="252" as="geometry" />
        </mxCell>
        <mxCell id="vmmLuZkF5NiIaxrYORKJ-72" value="position" style="html=1;verticalAlign=bottom;endArrow=block;curved=0;rounded=0;entryX=0.229;entryY=1.013;entryDx=0;entryDy=0;entryPerimeter=0;exitX=0.141;exitY=-0.006;exitDx=0;exitDy=0;exitPerimeter=0;" parent="1" source="vmmLuZkF5NiIaxrYORKJ-37" target="vmmLuZkF5NiIaxrYORKJ-58" edge="1">
          <mxGeometry width="80" relative="1" as="geometry">
            <mxPoint x="-650" y="-380" as="sourcePoint" />
            <mxPoint x="-570" y="-380" as="targetPoint" />
          </mxGeometry>
        </mxCell>
        <mxCell id="vmmLuZkF5NiIaxrYORKJ-81" value="" style="group" parent="1" vertex="1" connectable="0">
          <mxGeometry x="-1280" y="-210" width="140" height="380" as="geometry" />
        </mxCell>
        <mxCell id="vmmLuZkF5NiIaxrYORKJ-79" value="&lt;div&gt;&amp;lt;&amp;lt;enum&amp;gt;&amp;gt;&lt;/div&gt;&lt;div&gt;OpinionValue&lt;/div&gt;" style="swimlane;fontStyle=0;childLayout=stackLayout;horizontal=1;startSize=30;fillColor=none;horizontalStack=0;resizeParent=1;resizeParentMax=0;resizeLast=0;collapsible=1;marginBottom=0;whiteSpace=wrap;html=1;" parent="vmmLuZkF5NiIaxrYORKJ-81" vertex="1">
          <mxGeometry y="118" width="140" height="150" as="geometry" />
        </mxCell>
        <mxCell id="vmmLuZkF5NiIaxrYORKJ-80" value="&lt;div&gt;Vinchuca_Infestans&lt;/div&gt;&lt;div&gt;Vinchuca_Sordida&lt;/div&gt;&lt;div&gt;Vinchuca_Guasayana&lt;/div&gt;&lt;div&gt;Chinche_Foliada&lt;/div&gt;&lt;div&gt;Pathia_Chinche&lt;/div&gt;&lt;div&gt;Ninguna&lt;/div&gt;&lt;div&gt;ImagenPocoClara&lt;/div&gt;" style="text;strokeColor=none;fillColor=none;align=left;verticalAlign=top;spacingLeft=4;spacingRight=4;overflow=hidden;rotatable=0;points=[[0,0.5],[1,0.5]];portConstraint=eastwest;whiteSpace=wrap;html=1;" parent="vmmLuZkF5NiIaxrYORKJ-79" vertex="1">
          <mxGeometry y="30" width="140" height="120" as="geometry" />
        </mxCell>
        <mxCell id="vmmLuZkF5NiIaxrYORKJ-82" value="Region" style="swimlane;fontStyle=1;align=center;verticalAlign=top;childLayout=stackLayout;horizontal=1;startSize=26;horizontalStack=0;resizeParent=1;resizeParentMax=0;resizeLast=0;collapsible=1;marginBottom=0;whiteSpace=wrap;html=1;" parent="1" vertex="1">
          <mxGeometry x="-490" y="-1120" width="410" height="270" as="geometry" />
        </mxCell>
        <mxCell id="vmmLuZkF5NiIaxrYORKJ-83" value="- center:Position&lt;div&gt;- radius:double&lt;/div&gt;&lt;div&gt;- name:String&lt;/div&gt;&lt;div&gt;- events:EventManager&lt;/div&gt;" style="text;strokeColor=none;fillColor=none;align=left;verticalAlign=top;spacingLeft=4;spacingRight=4;overflow=hidden;rotatable=0;points=[[0,0.5],[1,0.5]];portConstraint=eastwest;whiteSpace=wrap;html=1;" parent="vmmLuZkF5NiIaxrYORKJ-82" vertex="1">
          <mxGeometry y="26" width="410" height="64" as="geometry" />
        </mxCell>
        <mxCell id="vmmLuZkF5NiIaxrYORKJ-84" value="" style="line;strokeWidth=1;fillColor=none;align=left;verticalAlign=middle;spacingTop=-1;spacingLeft=3;spacingRight=3;rotatable=0;labelPosition=right;points=[];portConstraint=eastwest;strokeColor=inherit;" parent="vmmLuZkF5NiIaxrYORKJ-82" vertex="1">
          <mxGeometry y="90" width="410" height="8" as="geometry" />
        </mxCell>
        <mxCell id="vmmLuZkF5NiIaxrYORKJ-85" value="&lt;div&gt;&lt;u style=&quot;color: rgb(0, 0, 0);&quot;&gt;+ new(Position. double, String, EventManager):void&lt;/u&gt;&lt;/div&gt;&lt;div&gt;&lt;span style=&quot;background-color: light-dark(#ffffff, var(--ge-dark-color, #121212)); color: rgb(0, 0, 0);&quot;&gt;&lt;u&gt;&lt;br&gt;&lt;/u&gt;&lt;/span&gt;&lt;/div&gt;&lt;div&gt;+checkOverlaps(regions: Region[0..*]): Region[0..*]&lt;div&gt;+getSamplesInRegion(samples:Sample[0..*])Sample[0..*]&lt;/div&gt;&lt;div&gt;+nofity(tipoEvento:String, sample:Sample):void&lt;/div&gt;&lt;div&gt;&lt;br&gt;&lt;/div&gt;&lt;div&gt;//Getters&lt;/div&gt;&lt;div&gt;+ getCenter():Positiom&lt;/div&gt;&lt;div&gt;+ getRadius():double&lt;/div&gt;&lt;div&gt;&lt;br&gt;&lt;/div&gt;&lt;div&gt;+ isPositionInside(position:Position):boolean&lt;/div&gt;&lt;br&gt;&lt;/div&gt;&lt;div&gt;&lt;br&gt;&lt;/div&gt;&lt;div&gt;&lt;br&gt;&lt;/div&gt;" style="text;strokeColor=none;fillColor=none;align=left;verticalAlign=top;spacingLeft=4;spacingRight=4;overflow=hidden;rotatable=0;points=[[0,0.5],[1,0.5]];portConstraint=eastwest;whiteSpace=wrap;html=1;" parent="vmmLuZkF5NiIaxrYORKJ-82" vertex="1">
          <mxGeometry y="98" width="410" height="172" as="geometry" />
        </mxCell>
        <mxCell id="vmmLuZkF5NiIaxrYORKJ-90" value="App&lt;span style=&quot;white-space: pre;&quot;&gt;&#x9;&lt;/span&gt;" style="swimlane;fontStyle=1;align=center;verticalAlign=top;childLayout=stackLayout;horizontal=1;startSize=26;horizontalStack=0;resizeParent=1;resizeParentMax=0;resizeLast=0;collapsible=1;marginBottom=0;whiteSpace=wrap;html=1;" parent="1" vertex="1">
          <mxGeometry x="110" y="-770" width="200" height="148" as="geometry" />
        </mxCell>
        <mxCell id="vmmLuZkF5NiIaxrYORKJ-91" value="&lt;div&gt;- samples:Sample[0..*]&lt;/div&gt;&lt;div&gt;- regions:Region[0..*]&lt;/div&gt;" style="text;strokeColor=none;fillColor=none;align=left;verticalAlign=top;spacingLeft=4;spacingRight=4;overflow=hidden;rotatable=0;points=[[0,0.5],[1,0.5]];portConstraint=eastwest;whiteSpace=wrap;html=1;" parent="vmmLuZkF5NiIaxrYORKJ-90" vertex="1">
          <mxGeometry y="26" width="200" height="44" as="geometry" />
        </mxCell>
        <mxCell id="vmmLuZkF5NiIaxrYORKJ-92" value="" style="line;strokeWidth=1;fillColor=none;align=left;verticalAlign=middle;spacingTop=-1;spacingLeft=3;spacingRight=3;rotatable=0;labelPosition=right;points=[];portConstraint=eastwest;strokeColor=inherit;" parent="vmmLuZkF5NiIaxrYORKJ-90" vertex="1">
          <mxGeometry y="70" width="200" height="8" as="geometry" />
        </mxCell>
        <mxCell id="vmmLuZkF5NiIaxrYORKJ-93" value="&lt;div&gt;+ addSample(sample:Sample):void&lt;/div&gt;&lt;div&gt;+ getSamples():Sample[0..*]&lt;/div&gt;&lt;div&gt;+ addRegion(region:Region):void&lt;/div&gt;&lt;div&gt;+ getRegions():Region[0..*]&lt;/div&gt;" style="text;strokeColor=none;fillColor=none;align=left;verticalAlign=top;spacingLeft=4;spacingRight=4;overflow=hidden;rotatable=0;points=[[0,0.5],[1,0.5]];portConstraint=eastwest;whiteSpace=wrap;html=1;" parent="vmmLuZkF5NiIaxrYORKJ-90" vertex="1">
          <mxGeometry y="78" width="200" height="70" as="geometry" />
        </mxCell>
        <mxCell id="vmmLuZkF5NiIaxrYORKJ-100" value="*" style="text;html=1;align=center;verticalAlign=middle;resizable=0;points=[];autosize=1;strokeColor=none;fillColor=none;" parent="1" vertex="1">
          <mxGeometry x="-100" y="-210" width="30" height="30" as="geometry" />
        </mxCell>
        <mxCell id="vmmLuZkF5NiIaxrYORKJ-101" value="" style="group" parent="1" vertex="1" connectable="0">
          <mxGeometry x="-70" y="-983" width="30" height="30" as="geometry" />
        </mxCell>
        <mxCell id="vmmLuZkF5NiIaxrYORKJ-95" value="" style="endArrow=block;endFill=1;html=1;align=left;verticalAlign=top;rounded=0;exitX=0.75;exitY=0;exitDx=0;exitDy=0;entryX=1.002;entryY=0.271;entryDx=0;entryDy=0;entryPerimeter=0;" parent="vmmLuZkF5NiIaxrYORKJ-101" source="vmmLuZkF5NiIaxrYORKJ-90" target="vmmLuZkF5NiIaxrYORKJ-85" edge="1">
          <mxGeometry x="-0.0073" y="-2" relative="1" as="geometry">
            <mxPoint x="170" y="-7" as="sourcePoint" />
            <mxPoint x="270" y="-17" as="targetPoint" />
            <mxPoint as="offset" />
          </mxGeometry>
        </mxCell>
        <mxCell id="vmmLuZkF5NiIaxrYORKJ-98" value="regions" style="edgeLabel;html=1;align=center;verticalAlign=middle;resizable=0;points=[];" parent="vmmLuZkF5NiIaxrYORKJ-95" vertex="1" connectable="0">
          <mxGeometry x="-0.1248" y="-3" relative="1" as="geometry">
            <mxPoint as="offset" />
          </mxGeometry>
        </mxCell>
        <mxCell id="vmmLuZkF5NiIaxrYORKJ-97" value="*" style="text;html=1;align=center;verticalAlign=middle;resizable=0;points=[];autosize=1;strokeColor=none;fillColor=none;" parent="vmmLuZkF5NiIaxrYORKJ-101" vertex="1">
          <mxGeometry width="30" height="30" as="geometry" />
        </mxCell>
        <mxCell id="vmmLuZkF5NiIaxrYORKJ-103" value="Review" style="swimlane;fontStyle=1;align=center;verticalAlign=top;childLayout=stackLayout;horizontal=1;startSize=26;horizontalStack=0;resizeParent=1;resizeParentMax=0;resizeLast=0;collapsible=1;marginBottom=0;whiteSpace=wrap;html=1;" parent="1" vertex="1">
          <mxGeometry x="-1040" y="-60" width="320" height="200" as="geometry" />
        </mxCell>
        <mxCell id="vmmLuZkF5NiIaxrYORKJ-104" value="- opinion:OpinionValue&lt;div&gt;- expertise:String&lt;/div&gt;&lt;div&gt;- userName:String&lt;/div&gt;" style="text;strokeColor=none;fillColor=none;align=left;verticalAlign=top;spacingLeft=4;spacingRight=4;overflow=hidden;rotatable=0;points=[[0,0.5],[1,0.5]];portConstraint=eastwest;whiteSpace=wrap;html=1;" parent="vmmLuZkF5NiIaxrYORKJ-103" vertex="1">
          <mxGeometry y="26" width="320" height="64" as="geometry" />
        </mxCell>
        <mxCell id="vmmLuZkF5NiIaxrYORKJ-105" value="" style="line;strokeWidth=1;fillColor=none;align=left;verticalAlign=middle;spacingTop=-1;spacingLeft=3;spacingRight=3;rotatable=0;labelPosition=right;points=[];portConstraint=eastwest;strokeColor=inherit;" parent="vmmLuZkF5NiIaxrYORKJ-103" vertex="1">
          <mxGeometry y="90" width="320" height="8" as="geometry" />
        </mxCell>
        <mxCell id="vmmLuZkF5NiIaxrYORKJ-106" value="&lt;u&gt;+ new (OpinionValue, String, String)&lt;/u&gt;&lt;div&gt;+ getOpinion():OpinionValue&lt;/div&gt;&lt;div&gt;+ getExpertise():String&lt;/div&gt;&lt;div&gt;+ getUserName()String&lt;/div&gt;" style="text;strokeColor=none;fillColor=none;align=left;verticalAlign=top;spacingLeft=4;spacingRight=4;overflow=hidden;rotatable=0;points=[[0,0.5],[1,0.5]];portConstraint=eastwest;whiteSpace=wrap;html=1;" parent="vmmLuZkF5NiIaxrYORKJ-103" vertex="1">
          <mxGeometry y="98" width="320" height="102" as="geometry" />
        </mxCell>
        <mxCell id="vmmLuZkF5NiIaxrYORKJ-109" value="" style="group" parent="1" vertex="1" connectable="0">
          <mxGeometry x="-805" y="20" width="30" height="30" as="geometry" />
        </mxCell>
        <mxCell id="vmmLuZkF5NiIaxrYORKJ-107" value="reviews" style="html=1;verticalAlign=bottom;endArrow=block;curved=0;rounded=0;entryX=0.998;entryY=0.796;entryDx=0;entryDy=0;entryPerimeter=0;exitX=-0.002;exitY=0.688;exitDx=0;exitDy=0;exitPerimeter=0;" parent="vmmLuZkF5NiIaxrYORKJ-109" source="vmmLuZkF5NiIaxrYORKJ-38" target="vmmLuZkF5NiIaxrYORKJ-104" edge="1">
          <mxGeometry width="80" relative="1" as="geometry">
            <mxPoint x="363" y="65" as="sourcePoint" />
            <mxPoint x="155" y="-80" as="targetPoint" />
          </mxGeometry>
        </mxCell>
        <mxCell id="vmmLuZkF5NiIaxrYORKJ-153" value="" style="group" parent="1" vertex="1" connectable="0">
          <mxGeometry x="-1853" y="-1150" width="1440" height="918" as="geometry" />
        </mxCell>
        <mxCell id="vmmLuZkF5NiIaxrYORKJ-133" value="EventManager" style="swimlane;fontStyle=1;align=center;verticalAlign=top;childLayout=stackLayout;horizontal=1;startSize=26;horizontalStack=0;resizeParent=1;resizeParentMax=0;resizeLast=0;collapsible=1;marginBottom=0;whiteSpace=wrap;html=1;container=0;" parent="vmmLuZkF5NiIaxrYORKJ-153" vertex="1">
          <mxGeometry x="860" width="350" height="230" as="geometry" />
        </mxCell>
        <mxCell id="vmmLuZkF5NiIaxrYORKJ-146" value="uploadSubs" style="html=1;verticalAlign=bottom;endArrow=block;curved=0;rounded=0;exitX=0.129;exitY=1.013;exitDx=0;exitDy=0;exitPerimeter=0;entryX=0.094;entryY=0.003;entryDx=0;entryDy=0;entryPerimeter=0;" parent="vmmLuZkF5NiIaxrYORKJ-153" source="vmmLuZkF5NiIaxrYORKJ-136" target="vmmLuZkF5NiIaxrYORKJ-137" edge="1">
          <mxGeometry width="80" relative="1" as="geometry">
            <mxPoint x="570" y="420" as="sourcePoint" />
            <mxPoint x="650" y="420" as="targetPoint" />
          </mxGeometry>
        </mxCell>
        <mxCell id="vmmLuZkF5NiIaxrYORKJ-148" value="validationSubs" style="html=1;verticalAlign=bottom;endArrow=block;curved=0;rounded=0;exitX=0.512;exitY=0.999;exitDx=0;exitDy=0;exitPerimeter=0;entryX=0.185;entryY=-0.005;entryDx=0;entryDy=0;entryPerimeter=0;" parent="vmmLuZkF5NiIaxrYORKJ-153" source="vmmLuZkF5NiIaxrYORKJ-136" target="vmmLuZkF5NiIaxrYORKJ-137" edge="1">
          <mxGeometry width="80" relative="1" as="geometry">
            <mxPoint x="680" y="370" as="sourcePoint" />
            <mxPoint x="690" y="478" as="targetPoint" />
          </mxGeometry>
        </mxCell>
        <mxCell id="vmmLuZkF5NiIaxrYORKJ-127" value="" style="endArrow=block;dashed=1;endFill=0;endSize=12;html=1;rounded=0;entryX=0.005;entryY=-0.049;entryDx=0;entryDy=0;entryPerimeter=0;" parent="vmmLuZkF5NiIaxrYORKJ-153" source="vmmLuZkF5NiIaxrYORKJ-122" target="vmmLuZkF5NiIaxrYORKJ-138" edge="1">
          <mxGeometry width="160" relative="1" as="geometry">
            <mxPoint x="575" y="470" as="sourcePoint" />
            <mxPoint x="730" y="506.0576923076919" as="targetPoint" />
          </mxGeometry>
        </mxCell>
        <mxCell id="vmmLuZkF5NiIaxrYORKJ-128" value="" style="html=1;verticalAlign=bottom;endArrow=block;curved=0;rounded=0;exitX=0.666;exitY=0.99;exitDx=0;exitDy=0;exitPerimeter=0;entryX=0.811;entryY=0.024;entryDx=0;entryDy=0;entryPerimeter=0;" parent="vmmLuZkF5NiIaxrYORKJ-153" source="vmmLuZkF5NiIaxrYORKJ-125" target="vmmLuZkF5NiIaxrYORKJ-141" edge="1">
          <mxGeometry width="80" relative="1" as="geometry">
            <mxPoint x="440" y="434.8571428571431" as="sourcePoint" />
            <mxPoint x="367.90999999999985" y="516.1799999999998" as="targetPoint" />
          </mxGeometry>
        </mxCell>
        <mxCell id="vmmLuZkF5NiIaxrYORKJ-129" value="validationAction" style="text;html=1;align=center;verticalAlign=middle;resizable=0;points=[];autosize=1;strokeColor=none;fillColor=none;container=0;" parent="vmmLuZkF5NiIaxrYORKJ-153" vertex="1">
          <mxGeometry x="555" y="580" width="110" height="30" as="geometry" />
        </mxCell>
        <mxCell id="vmmLuZkF5NiIaxrYORKJ-130" value="" style="html=1;verticalAlign=bottom;endArrow=block;curved=0;rounded=0;exitX=0.335;exitY=1.007;exitDx=0;exitDy=0;exitPerimeter=0;entryX=0.546;entryY=0.013;entryDx=0;entryDy=0;entryPerimeter=0;" parent="vmmLuZkF5NiIaxrYORKJ-153" source="vmmLuZkF5NiIaxrYORKJ-125" target="vmmLuZkF5NiIaxrYORKJ-141" edge="1">
          <mxGeometry width="80" relative="1" as="geometry">
            <mxPoint x="460" y="338.56714285714315" as="sourcePoint" />
            <mxPoint x="370" y="463.7235092457927" as="targetPoint" />
          </mxGeometry>
        </mxCell>
        <mxCell id="vmmLuZkF5NiIaxrYORKJ-131" value="updateAction" style="text;html=1;align=center;verticalAlign=middle;resizable=0;points=[];autosize=1;strokeColor=none;fillColor=none;container=0;" parent="vmmLuZkF5NiIaxrYORKJ-153" vertex="1">
          <mxGeometry x="690" y="580" width="90" height="30" as="geometry" />
        </mxCell>
        <mxCell id="vmmLuZkF5NiIaxrYORKJ-147" value="*" style="text;html=1;align=center;verticalAlign=middle;resizable=0;points=[];autosize=1;strokeColor=none;fillColor=none;container=0;" parent="vmmLuZkF5NiIaxrYORKJ-153" vertex="1">
          <mxGeometry x="920" y="290" width="30" height="30" as="geometry" />
        </mxCell>
        <mxCell id="vmmLuZkF5NiIaxrYORKJ-149" value="*" style="text;html=1;align=center;verticalAlign=middle;resizable=0;points=[];autosize=1;strokeColor=none;fillColor=none;container=0;" parent="vmmLuZkF5NiIaxrYORKJ-153" vertex="1">
          <mxGeometry x="1010" y="280" width="30" height="30" as="geometry" />
        </mxCell>
        <mxCell id="vmmLuZkF5NiIaxrYORKJ-134" value="&lt;div&gt;- uploadSubs:IObserver[0..*]&lt;/div&gt;&lt;div&gt;- validationSubs:IObserver[0..*]&lt;/div&gt;" style="text;strokeColor=none;fillColor=none;align=left;verticalAlign=top;spacingLeft=4;spacingRight=4;overflow=hidden;rotatable=0;points=[[0,0.5],[1,0.5]];portConstraint=eastwest;whiteSpace=wrap;html=1;container=0;" parent="vmmLuZkF5NiIaxrYORKJ-153" vertex="1">
          <mxGeometry x="860" y="26" width="350" height="44" as="geometry" />
        </mxCell>
        <mxCell id="vmmLuZkF5NiIaxrYORKJ-135" value="" style="line;strokeWidth=1;fillColor=none;align=left;verticalAlign=middle;spacingTop=-1;spacingLeft=3;spacingRight=3;rotatable=0;labelPosition=right;points=[];portConstraint=eastwest;strokeColor=inherit;container=0;" parent="vmmLuZkF5NiIaxrYORKJ-153" vertex="1">
          <mxGeometry x="860" y="70" width="350" height="8" as="geometry" />
        </mxCell>
        <mxCell id="vmmLuZkF5NiIaxrYORKJ-136" value="&lt;div&gt;&lt;u&gt;+ new():void&lt;/u&gt;&lt;/div&gt;&lt;div&gt;&lt;u&gt;&lt;br&gt;&lt;/u&gt;&lt;/div&gt;&lt;div&gt;+ suscribeUpload(observer, String):Void&lt;/div&gt;&lt;div&gt;+ suscribeValidation(observer, String):Void&lt;/div&gt;&lt;div&gt;&lt;br&gt;&lt;/div&gt;&lt;div&gt;+ unsuscribeUpload(observer, String):void&lt;/div&gt;&lt;div&gt;+ unsuscribeValidation(observer, String):void&lt;/div&gt;&lt;div&gt;&lt;br&gt;&lt;/div&gt;&lt;div&gt;+ notify(event:String, sample:Sample, region:Region):void&lt;/div&gt;" style="text;strokeColor=none;fillColor=none;align=left;verticalAlign=top;spacingLeft=4;spacingRight=4;overflow=hidden;rotatable=0;points=[[0,0.5],[1,0.5]];portConstraint=eastwest;whiteSpace=wrap;html=1;container=0;" parent="vmmLuZkF5NiIaxrYORKJ-153" vertex="1">
          <mxGeometry x="860" y="78" width="350" height="152" as="geometry" />
        </mxCell>
        <mxCell id="vmmLuZkF5NiIaxrYORKJ-77" value="&lt;div&gt;&amp;lt;&amp;lt;enum&amp;gt;&amp;gt;&lt;/div&gt;&lt;div&gt;TipoDeOrganizacion&lt;/div&gt;" style="swimlane;fontStyle=0;childLayout=stackLayout;horizontal=1;startSize=30;fillColor=none;horizontalStack=0;resizeParent=1;resizeParentMax=0;resizeLast=0;collapsible=1;marginBottom=0;whiteSpace=wrap;html=1;" parent="vmmLuZkF5NiIaxrYORKJ-153" vertex="1">
          <mxGeometry x="450" y="120" width="140" height="100" as="geometry" />
        </mxCell>
        <mxCell id="vmmLuZkF5NiIaxrYORKJ-78" value="&lt;div&gt;Salud&lt;/div&gt;&lt;div&gt;Educativa&lt;/div&gt;&lt;div&gt;Cultural&lt;/div&gt;&lt;div&gt;Asistencia&lt;/div&gt;" style="text;strokeColor=none;fillColor=none;align=left;verticalAlign=top;spacingLeft=4;spacingRight=4;overflow=hidden;rotatable=0;points=[[0,0.5],[1,0.5]];portConstraint=eastwest;whiteSpace=wrap;html=1;" parent="vmmLuZkF5NiIaxrYORKJ-77" vertex="1">
          <mxGeometry y="30" width="140" height="70" as="geometry" />
        </mxCell>
        <mxCell id="vmmLuZkF5NiIaxrYORKJ-157" value="tipoONG" style="html=1;verticalAlign=bottom;endArrow=block;curved=0;rounded=0;exitX=0.402;exitY=0.006;exitDx=0;exitDy=0;exitPerimeter=0;entryX=0.63;entryY=0.977;entryDx=0;entryDy=0;entryPerimeter=0;" parent="vmmLuZkF5NiIaxrYORKJ-153" source="vmmLuZkF5NiIaxrYORKJ-122" target="vmmLuZkF5NiIaxrYORKJ-78" edge="1">
          <mxGeometry width="80" relative="1" as="geometry">
            <mxPoint x="750" y="310" as="sourcePoint" />
            <mxPoint x="830" y="310" as="targetPoint" />
          </mxGeometry>
        </mxCell>
        <mxCell id="vmmLuZkF5NiIaxrYORKJ-69" value="" style="group" parent="vmmLuZkF5NiIaxrYORKJ-153" vertex="1" connectable="0">
          <mxGeometry x="970" y="530" width="410" height="284" as="geometry" />
        </mxCell>
        <mxCell id="vmmLuZkF5NiIaxrYORKJ-59" value="Meters" style="swimlane;fontStyle=1;align=center;verticalAlign=top;childLayout=stackLayout;horizontal=1;startSize=26;horizontalStack=0;resizeParent=1;resizeParentMax=0;resizeLast=0;collapsible=1;marginBottom=0;whiteSpace=wrap;html=1;" parent="vmmLuZkF5NiIaxrYORKJ-69" vertex="1">
          <mxGeometry y="204" width="180" height="80" as="geometry" />
        </mxCell>
        <mxCell id="vmmLuZkF5NiIaxrYORKJ-60" value="" style="line;strokeWidth=1;fillColor=none;align=left;verticalAlign=middle;spacingTop=-1;spacingLeft=3;spacingRight=3;rotatable=0;labelPosition=right;points=[];portConstraint=eastwest;strokeColor=inherit;" parent="vmmLuZkF5NiIaxrYORKJ-59" vertex="1">
          <mxGeometry y="26" width="180" height="8" as="geometry" />
        </mxCell>
        <mxCell id="vmmLuZkF5NiIaxrYORKJ-61" value="+ convert(kms:dobule):double" style="text;strokeColor=none;fillColor=none;align=left;verticalAlign=top;spacingLeft=4;spacingRight=4;overflow=hidden;rotatable=0;points=[[0,0.5],[1,0.5]];portConstraint=eastwest;whiteSpace=wrap;html=1;" parent="vmmLuZkF5NiIaxrYORKJ-59" vertex="1">
          <mxGeometry y="34" width="180" height="46" as="geometry" />
        </mxCell>
        <mxCell id="vmmLuZkF5NiIaxrYORKJ-62" value="Kilometers" style="swimlane;fontStyle=1;align=center;verticalAlign=top;childLayout=stackLayout;horizontal=1;startSize=26;horizontalStack=0;resizeParent=1;resizeParentMax=0;resizeLast=0;collapsible=1;marginBottom=0;whiteSpace=wrap;html=1;" parent="vmmLuZkF5NiIaxrYORKJ-69" vertex="1">
          <mxGeometry x="210" y="204" width="200" height="80" as="geometry" />
        </mxCell>
        <mxCell id="vmmLuZkF5NiIaxrYORKJ-63" value="" style="line;strokeWidth=1;fillColor=none;align=left;verticalAlign=middle;spacingTop=-1;spacingLeft=3;spacingRight=3;rotatable=0;labelPosition=right;points=[];portConstraint=eastwest;strokeColor=inherit;" parent="vmmLuZkF5NiIaxrYORKJ-62" vertex="1">
          <mxGeometry y="26" width="200" height="8" as="geometry" />
        </mxCell>
        <mxCell id="vmmLuZkF5NiIaxrYORKJ-64" value="+ convert(kms:dobule):double" style="text;strokeColor=none;fillColor=none;align=left;verticalAlign=top;spacingLeft=4;spacingRight=4;overflow=hidden;rotatable=0;points=[[0,0.5],[1,0.5]];portConstraint=eastwest;whiteSpace=wrap;html=1;" parent="vmmLuZkF5NiIaxrYORKJ-62" vertex="1">
          <mxGeometry y="34" width="200" height="46" as="geometry" />
        </mxCell>
        <mxCell id="vmmLuZkF5NiIaxrYORKJ-65" value="&lt;p style=&quot;margin:0px;margin-top:4px;text-align:center;&quot;&gt;&lt;i&gt;&amp;lt;&amp;lt;Interface&amp;gt;&amp;gt;&lt;/i&gt;&lt;br&gt;&lt;b&gt;MeasureUnit&lt;/b&gt;&lt;/p&gt;&lt;hr size=&quot;1&quot; style=&quot;border-style:solid;&quot;&gt;&lt;p style=&quot;margin:0px;margin-left:4px;&quot;&gt;+ convert(kms:dobule):double&lt;/p&gt;" style="verticalAlign=top;align=left;overflow=fill;html=1;whiteSpace=wrap;fillColor=none;" parent="vmmLuZkF5NiIaxrYORKJ-69" vertex="1">
          <mxGeometry x="80" width="190" height="140" as="geometry" />
        </mxCell>
        <mxCell id="vmmLuZkF5NiIaxrYORKJ-66" value="" style="endArrow=block;dashed=1;endFill=0;endSize=12;html=1;rounded=0;exitX=0.5;exitY=0;exitDx=0;exitDy=0;" parent="vmmLuZkF5NiIaxrYORKJ-69" source="vmmLuZkF5NiIaxrYORKJ-59" target="vmmLuZkF5NiIaxrYORKJ-65" edge="1">
          <mxGeometry width="160" relative="1" as="geometry">
            <mxPoint x="-200" y="124" as="sourcePoint" />
            <mxPoint x="-40" y="124" as="targetPoint" />
          </mxGeometry>
        </mxCell>
        <mxCell id="vmmLuZkF5NiIaxrYORKJ-67" value="" style="endArrow=block;dashed=1;endFill=0;endSize=12;html=1;rounded=0;" parent="vmmLuZkF5NiIaxrYORKJ-69" source="vmmLuZkF5NiIaxrYORKJ-62" target="vmmLuZkF5NiIaxrYORKJ-65" edge="1">
          <mxGeometry width="160" relative="1" as="geometry">
            <mxPoint x="-80" y="194" as="sourcePoint" />
            <mxPoint x="-36" y="144" as="targetPoint" />
          </mxGeometry>
        </mxCell>
        <mxCell id="vmmLuZkF5NiIaxrYORKJ-161" value="" style="group" parent="vmmLuZkF5NiIaxrYORKJ-153" vertex="1" connectable="0">
          <mxGeometry x="920" y="320" width="450" height="70" as="geometry" />
        </mxCell>
        <mxCell id="vmmLuZkF5NiIaxrYORKJ-137" value="&lt;div&gt;&amp;lt;&amp;lt;interface&amp;gt;&amp;gt;&lt;/div&gt;&lt;div&gt;IObserver&lt;/div&gt;" style="swimlane;fontStyle=0;childLayout=stackLayout;horizontal=1;startSize=26;fillColor=none;horizontalStack=0;resizeParent=1;resizeParentMax=0;resizeLast=0;collapsible=1;marginBottom=0;whiteSpace=wrap;html=1;container=0;" parent="vmmLuZkF5NiIaxrYORKJ-161" vertex="1">
          <mxGeometry width="450" height="70" as="geometry" />
        </mxCell>
        <mxCell id="vmmLuZkF5NiIaxrYORKJ-138" value="&lt;div&gt;+ notifyValidation(sample:Sample, region:Region):void&lt;/div&gt;&lt;div&gt;+&amp;nbsp;notifyUpload(sample:Sample, region:Region):void&lt;/div&gt;" style="text;strokeColor=none;fillColor=none;align=left;verticalAlign=top;spacingLeft=4;spacingRight=4;overflow=hidden;rotatable=0;points=[[0,0.5],[1,0.5]];portConstraint=eastwest;whiteSpace=wrap;html=1;container=0;" parent="vmmLuZkF5NiIaxrYORKJ-161" vertex="1">
          <mxGeometry y="26" width="450" height="44" as="geometry" />
        </mxCell>
        <mxCell id="vmmLuZkF5NiIaxrYORKJ-162" value="" style="group" parent="vmmLuZkF5NiIaxrYORKJ-153" vertex="1" connectable="0">
          <mxGeometry x="480" y="290" width="360" height="250" as="geometry" />
        </mxCell>
        <mxCell id="vmmLuZkF5NiIaxrYORKJ-122" value="Organizacion" style="swimlane;fontStyle=1;align=center;verticalAlign=top;childLayout=stackLayout;horizontal=1;startSize=26;horizontalStack=0;resizeParent=1;resizeParentMax=0;resizeLast=0;collapsible=1;marginBottom=0;whiteSpace=wrap;html=1;container=0;" parent="vmmLuZkF5NiIaxrYORKJ-162" vertex="1">
          <mxGeometry width="360" height="250" as="geometry">
            <mxRectangle x="1315" y="890" width="70" height="30" as="alternateBounds" />
          </mxGeometry>
        </mxCell>
        <mxCell id="vmmLuZkF5NiIaxrYORKJ-123" value="+ location:Position&lt;div&gt;+ tipoONG:TipoDeOrganizacion&lt;/div&gt;&lt;div&gt;+ amountEmployees:int&lt;/div&gt;&lt;div&gt;+ validationAction: FuncionalidadExterna&lt;/div&gt;&lt;div&gt;+ updateAction: FuncionalidadExterna&lt;/div&gt;" style="text;strokeColor=none;fillColor=none;align=left;verticalAlign=top;spacingLeft=4;spacingRight=4;overflow=hidden;rotatable=0;points=[[0,0.5],[1,0.5]];portConstraint=eastwest;whiteSpace=wrap;html=1;container=0;" parent="vmmLuZkF5NiIaxrYORKJ-162" vertex="1">
          <mxGeometry y="26" width="360" height="94" as="geometry" />
        </mxCell>
        <mxCell id="vmmLuZkF5NiIaxrYORKJ-124" value="" style="line;strokeWidth=1;fillColor=none;align=left;verticalAlign=middle;spacingTop=-1;spacingLeft=3;spacingRight=3;rotatable=0;labelPosition=right;points=[];portConstraint=eastwest;strokeColor=inherit;container=0;" parent="vmmLuZkF5NiIaxrYORKJ-162" vertex="1">
          <mxGeometry y="120" width="360" height="8" as="geometry" />
        </mxCell>
        <mxCell id="vmmLuZkF5NiIaxrYORKJ-125" value="&lt;div&gt;&lt;u&gt;+ new(String, TipoDeOrganizacion, int):void&lt;/u&gt;&lt;/div&gt;&lt;div&gt;&lt;br&gt;&lt;/div&gt;&lt;div&gt;+ notifyValidation(sample:Sample, region:Region):void&lt;/div&gt;&lt;div&gt;+ notifyUpdate(sample:Sample, region:Region):void&lt;/div&gt;&lt;div&gt;&lt;br&gt;&lt;/div&gt;&lt;div&gt;+ setValidationAction(extFunc:FuncionalidadExterna):void&lt;/div&gt;&lt;div&gt;+ setUpdateAction(extFunc:FuncionalidadExterna):void&lt;/div&gt;" style="text;strokeColor=none;fillColor=none;align=left;verticalAlign=top;spacingLeft=4;spacingRight=4;overflow=hidden;rotatable=0;points=[[0,0.5],[1,0.5]];portConstraint=eastwest;whiteSpace=wrap;html=1;container=0;" parent="vmmLuZkF5NiIaxrYORKJ-162" vertex="1">
          <mxGeometry y="128" width="360" height="122" as="geometry" />
        </mxCell>
        <mxCell id="ieHR7ZOc31qo_cYA6DRX-2" value="" style="endArrow=none;html=1;rounded=0;exitX=-0.004;exitY=1.028;exitDx=0;exitDy=0;exitPerimeter=0;entryX=0.999;entryY=0.275;entryDx=0;entryDy=0;entryPerimeter=0;" edge="1" parent="vmmLuZkF5NiIaxrYORKJ-162" source="vmmLuZkF5NiIaxrYORKJ-123" target="vmmLuZkF5NiIaxrYORKJ-124">
          <mxGeometry width="50" height="50" relative="1" as="geometry">
            <mxPoint x="93" y="20" as="sourcePoint" />
            <mxPoint x="143" y="-30" as="targetPoint" />
          </mxGeometry>
        </mxCell>
        <mxCell id="vmmLuZkF5NiIaxrYORKJ-163" value="" style="group" parent="vmmLuZkF5NiIaxrYORKJ-153" vertex="1" connectable="0">
          <mxGeometry x="430" y="660" width="360" height="64" as="geometry" />
        </mxCell>
        <mxCell id="vmmLuZkF5NiIaxrYORKJ-141" value="&lt;div&gt;&amp;lt;&amp;lt;interface&amp;gt;&amp;gt;&lt;/div&gt;&lt;div&gt;FuncionalidadExterna&lt;/div&gt;" style="swimlane;fontStyle=0;childLayout=stackLayout;horizontal=1;startSize=30;fillColor=none;horizontalStack=0;resizeParent=1;resizeParentMax=0;resizeLast=0;collapsible=1;marginBottom=0;whiteSpace=wrap;html=1;container=0;" parent="vmmLuZkF5NiIaxrYORKJ-163" vertex="1">
          <mxGeometry width="360" height="64" as="geometry" />
        </mxCell>
        <mxCell id="vmmLuZkF5NiIaxrYORKJ-142" value="&lt;p style=&quot;margin:0px;margin-left:4px;&quot;&gt;+ nuevoEvento(Organizacion, zonaDeCobertura, Muestra):void&lt;/p&gt;" style="text;strokeColor=none;fillColor=none;align=left;verticalAlign=top;spacingLeft=4;spacingRight=4;overflow=hidden;rotatable=0;points=[[0,0.5],[1,0.5]];portConstraint=eastwest;whiteSpace=wrap;html=1;container=0;" parent="vmmLuZkF5NiIaxrYORKJ-163" vertex="1">
          <mxGeometry y="30" width="360" height="34" as="geometry" />
        </mxCell>
        <mxCell id="ieHR7ZOc31qo_cYA6DRX-4" value="" style="endArrow=none;html=1;rounded=0;exitX=-0.001;exitY=1.01;exitDx=0;exitDy=0;exitPerimeter=0;" edge="1" parent="vmmLuZkF5NiIaxrYORKJ-153" source="vmmLuZkF5NiIaxrYORKJ-134">
          <mxGeometry width="50" height="50" relative="1" as="geometry">
            <mxPoint x="1193" y="230" as="sourcePoint" />
            <mxPoint x="1213" y="70" as="targetPoint" />
          </mxGeometry>
        </mxCell>
        <mxCell id="vmmLuZkF5NiIaxrYORKJ-154" value="events" style="html=1;verticalAlign=bottom;endArrow=block;curved=0;rounded=0;entryX=0.996;entryY=0.581;entryDx=0;entryDy=0;entryPerimeter=0;exitX=0.003;exitY=0.297;exitDx=0;exitDy=0;exitPerimeter=0;" parent="1" source="vmmLuZkF5NiIaxrYORKJ-85" target="vmmLuZkF5NiIaxrYORKJ-136" edge="1">
          <mxGeometry width="80" relative="1" as="geometry">
            <mxPoint x="-460" y="-900" as="sourcePoint" />
            <mxPoint x="-380" y="-900" as="targetPoint" />
          </mxGeometry>
        </mxCell>
        <mxCell id="vmmLuZkF5NiIaxrYORKJ-73" value="&lt;div&gt;&amp;lt;&amp;lt;enum&amp;gt;&amp;gt;&lt;/div&gt;&lt;div&gt;EVinchuca&lt;/div&gt;" style="swimlane;fontStyle=0;childLayout=stackLayout;horizontal=1;startSize=30;fillColor=none;horizontalStack=0;resizeParent=1;resizeParentMax=0;resizeLast=0;collapsible=1;marginBottom=0;whiteSpace=wrap;html=1;" parent="1" vertex="1">
          <mxGeometry x="-870" y="-290" width="140" height="100" as="geometry" />
        </mxCell>
        <mxCell id="vmmLuZkF5NiIaxrYORKJ-75" value="&lt;div&gt;Infestans&lt;/div&gt;&lt;div&gt;Sordida&lt;/div&gt;&lt;div&gt;Guasayana&lt;/div&gt;" style="text;strokeColor=none;fillColor=none;align=left;verticalAlign=top;spacingLeft=4;spacingRight=4;overflow=hidden;rotatable=0;points=[[0,0.5],[1,0.5]];portConstraint=eastwest;whiteSpace=wrap;html=1;" parent="vmmLuZkF5NiIaxrYORKJ-73" vertex="1">
          <mxGeometry y="30" width="140" height="70" as="geometry" />
        </mxCell>
        <mxCell id="vmmLuZkF5NiIaxrYORKJ-155" value="opinion" style="html=1;verticalAlign=bottom;endArrow=block;curved=0;rounded=0;exitX=0.004;exitY=0.428;exitDx=0;exitDy=0;exitPerimeter=0;entryX=1.009;entryY=0.215;entryDx=0;entryDy=0;entryPerimeter=0;" parent="1" source="vmmLuZkF5NiIaxrYORKJ-104" target="vmmLuZkF5NiIaxrYORKJ-80" edge="1">
          <mxGeometry width="80" relative="1" as="geometry">
            <mxPoint x="-1030" y="-110" as="sourcePoint" />
            <mxPoint x="-950" y="-110" as="targetPoint" />
          </mxGeometry>
        </mxCell>
        <mxCell id="vmmLuZkF5NiIaxrYORKJ-156" value="specie" style="html=1;verticalAlign=bottom;endArrow=block;curved=0;rounded=0;entryX=0.777;entryY=1.037;entryDx=0;entryDy=0;entryPerimeter=0;exitX=-0.001;exitY=0.153;exitDx=0;exitDy=0;exitPerimeter=0;" parent="1" source="vmmLuZkF5NiIaxrYORKJ-38" target="vmmLuZkF5NiIaxrYORKJ-75" edge="1">
          <mxGeometry width="80" relative="1" as="geometry">
            <mxPoint x="-1030" y="-110" as="sourcePoint" />
            <mxPoint x="-950" y="-110" as="targetPoint" />
          </mxGeometry>
        </mxCell>
        <mxCell id="vmmLuZkF5NiIaxrYORKJ-158" value="system" style="html=1;verticalAlign=bottom;endArrow=block;curved=0;rounded=0;entryX=0.005;entryY=0.682;entryDx=0;entryDy=0;entryPerimeter=0;exitX=1.002;exitY=0.24;exitDx=0;exitDy=0;exitPerimeter=0;" parent="1" source="vmmLuZkF5NiIaxrYORKJ-56" target="vmmLuZkF5NiIaxrYORKJ-91" edge="1">
          <mxGeometry width="80" relative="1" as="geometry">
            <mxPoint x="60" y="-710" as="sourcePoint" />
            <mxPoint x="140" y="-710" as="targetPoint" />
          </mxGeometry>
        </mxCell>
        <mxCell id="vmmLuZkF5NiIaxrYORKJ-160" value="system" style="html=1;verticalAlign=bottom;endArrow=block;curved=0;rounded=0;exitX=0.129;exitY=0.008;exitDx=0;exitDy=0;exitPerimeter=0;entryX=0.702;entryY=0.975;entryDx=0;entryDy=0;entryPerimeter=0;" parent="1" source="vmmLuZkF5NiIaxrYORKJ-1" target="vmmLuZkF5NiIaxrYORKJ-93" edge="1">
          <mxGeometry width="80" relative="1" as="geometry">
            <mxPoint x="374" y="-622" as="sourcePoint" />
            <mxPoint x="454" y="-622" as="targetPoint" />
          </mxGeometry>
        </mxCell>
        <mxCell id="vmmLuZkF5NiIaxrYORKJ-15" value="Extends" style="endArrow=block;endSize=16;endFill=0;html=1;rounded=0;entryX=0.42;entryY=0.985;entryDx=0;entryDy=0;entryPerimeter=0;" parent="1" source="vmmLuZkF5NiIaxrYORKJ-11" target="vmmLuZkF5NiIaxrYORKJ-4" edge="1">
          <mxGeometry width="160" relative="1" as="geometry">
            <mxPoint x="448" y="77" as="sourcePoint" />
            <mxPoint x="400" y="-70" as="targetPoint" />
          </mxGeometry>
        </mxCell>
        <mxCell id="vmmLuZkF5NiIaxrYORKJ-108" value="*" style="text;html=1;align=center;verticalAlign=middle;resizable=0;points=[];autosize=1;strokeColor=none;fillColor=none;" parent="1" vertex="1">
          <mxGeometry x="-710" y="-30" width="30" height="30" as="geometry" />
        </mxCell>
        <mxCell id="vmmLuZkF5NiIaxrYORKJ-166" value="samples" style="html=1;verticalAlign=bottom;endArrow=block;rounded=0;exitX=0.069;exitY=1.002;exitDx=0;exitDy=0;edgeStyle=orthogonalEdgeStyle;entryX=0.945;entryY=-0.006;entryDx=0;entryDy=0;entryPerimeter=0;exitPerimeter=0;" parent="1" source="vmmLuZkF5NiIaxrYORKJ-93" target="vmmLuZkF5NiIaxrYORKJ-37" edge="1">
          <mxGeometry x="0.0005" width="80" relative="1" as="geometry">
            <mxPoint x="120" y="-510" as="sourcePoint" />
            <mxPoint x="90" y="-338" as="targetPoint" />
            <Array as="points">
              <mxPoint x="124" y="-610" />
              <mxPoint x="124" y="-610" />
              <mxPoint x="124" y="-600" />
              <mxPoint x="120" y="-600" />
              <mxPoint x="120" y="-290" />
              <mxPoint x="-99" y="-290" />
            </Array>
            <mxPoint as="offset" />
          </mxGeometry>
        </mxCell>
        <mxCell id="ieHR7ZOc31qo_cYA6DRX-14" value="" style="group" vertex="1" connectable="0" parent="1">
          <mxGeometry x="280" y="-890" width="632" height="236" as="geometry" />
        </mxCell>
        <mxCell id="ieHR7ZOc31qo_cYA6DRX-5" value="SearchEngine" style="swimlane;fontStyle=1;align=center;verticalAlign=top;childLayout=stackLayout;horizontal=1;startSize=26;horizontalStack=0;resizeParent=1;resizeParentMax=0;resizeLast=0;collapsible=1;marginBottom=0;whiteSpace=wrap;html=1;" vertex="1" parent="ieHR7ZOc31qo_cYA6DRX-14">
          <mxGeometry x="162" y="116" width="470" height="120" as="geometry" />
        </mxCell>
        <mxCell id="ieHR7ZOc31qo_cYA6DRX-7" value="" style="line;strokeWidth=1;fillColor=none;align=left;verticalAlign=middle;spacingTop=-1;spacingLeft=3;spacingRight=3;rotatable=0;labelPosition=right;points=[];portConstraint=eastwest;strokeColor=inherit;" vertex="1" parent="ieHR7ZOc31qo_cYA6DRX-5">
          <mxGeometry y="26" width="470" height="8" as="geometry" />
        </mxCell>
        <mxCell id="ieHR7ZOc31qo_cYA6DRX-8" value="+ buscar(samples:Sample[1..*], fechaCreacion:LocalDate, fechaUltVoto:LocalDate, &lt;span style=&quot;white-space: pre;&quot;&gt;&#x9;&lt;/span&gt;&lt;span style=&quot;white-space: pre;&quot;&gt;&#x9;&lt;/span&gt;tipoDetectado:OpinionValue, nivelDeVerificacion:String, &lt;span style=&quot;white-space: pre;&quot;&gt;&#x9;&lt;/span&gt;&lt;span style=&quot;white-space: pre;&quot;&gt;&#x9;&lt;/span&gt;operators:LogicalOperator[0..*]): Sample[0..*]" style="text;strokeColor=none;fillColor=none;align=left;verticalAlign=top;spacingLeft=4;spacingRight=4;overflow=hidden;rotatable=0;points=[[0,0.5],[1,0.5]];portConstraint=eastwest;whiteSpace=wrap;html=1;" vertex="1" parent="ieHR7ZOc31qo_cYA6DRX-5">
          <mxGeometry y="34" width="470" height="86" as="geometry" />
        </mxCell>
        <mxCell id="ieHR7ZOc31qo_cYA6DRX-9" value="&lt;div&gt;&amp;lt;&amp;lt;enum&amp;gt;&amp;gt;&lt;/div&gt;&lt;div&gt;LogicalOperator&lt;/div&gt;" style="swimlane;fontStyle=0;childLayout=stackLayout;horizontal=1;startSize=36;fillColor=none;horizontalStack=0;resizeParent=1;resizeParentMax=0;resizeLast=0;collapsible=1;marginBottom=0;whiteSpace=wrap;html=1;" vertex="1" parent="ieHR7ZOc31qo_cYA6DRX-14">
          <mxGeometry width="150" height="90" as="geometry" />
        </mxCell>
        <mxCell id="ieHR7ZOc31qo_cYA6DRX-11" value="&lt;div&gt;And&lt;/div&gt;&lt;div&gt;Or&lt;/div&gt;" style="text;strokeColor=none;fillColor=none;align=left;verticalAlign=top;spacingLeft=4;spacingRight=4;overflow=hidden;rotatable=0;points=[[0,0.5],[1,0.5]];portConstraint=eastwest;whiteSpace=wrap;html=1;" vertex="1" parent="ieHR7ZOc31qo_cYA6DRX-9">
          <mxGeometry y="36" width="150" height="54" as="geometry" />
        </mxCell>
      </root>
    </mxGraphModel>
  </diagram>
</mxfile>
